<svg xmlns="http://www.w3.org/2000/svg" width="16" height="16" viewBox="0 0 16 16">
    <path data-name="Rectangle 537" d="M2115 775.987V788h-14v-16h10z" style="fill:#ef5959" transform="translate(-2100 -772)"/>
    <path d="M2106.233 780.837c.3-.61.65-1.3.927-1.987l.109-.272a7.525 7.525 0 0 1-.385-3.266.493.493 0 0 1 .5-.306H2107.55c.316-.005.465.405.481.565a2.618 2.618 0 0 1-.092.716 1.8 1.8 0 0 0-.1-.728c-.131-.293-.256-.468-.367-.5a.365.365 0 0 0-.13.272 4.065 4.065 0 0 0-.05.627 7.153 7.153 0 0 0 .283 1.822c.034-.1.065-.2.09-.3.039-.148.282-1.129.282-1.129s-.062 1.305-.147 1.7l-.06.251a5.75 5.75 0 0 0 1.4 2.237 4.371 4.371 0 0 0 .809.569 10.739 10.739 0 0 1 1.642-.127 2.02 2.02 0 0 1 1.264.289.5.5 0 0 1 .139.323 1 1 0 0 1-.027.188c.007-.034.007-.2-.492-.365a5.68 5.68 0 0 0-2.013-.028 4 4 0 0 0 2.333.613.678.678 0 0 0 .17-.17 1.778 1.778 0 0 1-.1.323.5.5 0 0 1-.246.172 5.128 5.128 0 0 1-2.927-.84 23.447 23.447 0 0 0-3.763.915c-1.093 1.96-1.915 2.86-2.583 2.518l-.246-.126a.3.3 0 0 1-.092-.317c.078-.39.556-.977 1.516-1.564.1-.064.564-.313.564-.313s-.341.338-.421.4a3.629 3.629 0 0 0-1.318 1.765v.027c.651-.095 1.628-1.451 2.884-3.964m.4.208c-.21.4-.415.778-.6 1.122a15.768 15.768 0 0 1 3.246-.94c-.144-.1-.284-.21-.415-.324a5.686 5.686 0 0 1-1.368-1.821 15.76 15.76 0 0 1-.859 1.962" style="fill:#fff" transform="translate(-2100 -772)"/>
    <path data-name="pdf" d="M2106.233 780.837c.3-.61.65-1.3.927-1.987l.109-.272a7.525 7.525 0 0 1-.385-3.266.493.493 0 0 1 .5-.306H2107.55c.316-.005.465.405.481.565a2.618 2.618 0 0 1-.092.716 1.8 1.8 0 0 0-.1-.728c-.131-.293-.256-.468-.367-.5a.365.365 0 0 0-.13.272 4.065 4.065 0 0 0-.05.627 7.153 7.153 0 0 0 .283 1.822c.034-.1.065-.2.09-.3.039-.148.282-1.129.282-1.129s-.062 1.305-.147 1.7l-.06.251a5.75 5.75 0 0 0 1.4 2.237 4.371 4.371 0 0 0 .809.569 10.739 10.739 0 0 1 1.642-.127 2.02 2.02 0 0 1 1.264.289.5.5 0 0 1 .139.323 1 1 0 0 1-.027.188c.007-.034.007-.2-.492-.365a5.68 5.68 0 0 0-2.013-.028 4 4 0 0 0 2.333.613.678.678 0 0 0 .17-.17 1.778 1.778 0 0 1-.1.323.5.5 0 0 1-.246.172 5.128 5.128 0 0 1-2.927-.84 23.447 23.447 0 0 0-3.763.915c-1.093 1.96-1.915 2.86-2.583 2.518l-.246-.126a.3.3 0 0 1-.092-.317c.078-.39.556-.977 1.516-1.564.1-.064.564-.313.564-.313s-.341.338-.421.4a3.629 3.629 0 0 0-1.318 1.765v.027c.651-.095 1.628-1.451 2.884-3.964m.4.208c-.21.4-.415.778-.6 1.122a15.768 15.768 0 0 1 3.246-.94c-.144-.1-.284-.21-.415-.324a5.686 5.686 0 0 1-1.368-1.821 15.76 15.76 0 0 1-.859 1.962" style="fill:#fff" transform="translate(-2100 -772)"/>
    <path data-name="pdf" d="M2106.233 780.837c.3-.61.65-1.3.927-1.987l.109-.272a7.525 7.525 0 0 1-.385-3.266.493.493 0 0 1 .5-.306H2107.55c.316-.005.465.405.481.565a2.618 2.618 0 0 1-.092.716 1.8 1.8 0 0 0-.1-.728c-.131-.293-.256-.468-.367-.5a.365.365 0 0 0-.13.272 4.065 4.065 0 0 0-.05.627 7.153 7.153 0 0 0 .283 1.822c.034-.1.065-.2.09-.3.039-.148.282-1.129.282-1.129s-.062 1.305-.147 1.7l-.06.251a5.75 5.75 0 0 0 1.4 2.237 4.371 4.371 0 0 0 .809.569 10.739 10.739 0 0 1 1.642-.127 2.02 2.02 0 0 1 1.264.289.5.5 0 0 1 .139.323 1 1 0 0 1-.027.188c.007-.034.007-.2-.492-.365a5.68 5.68 0 0 0-2.013-.028 4 4 0 0 0 2.333.613.678.678 0 0 0 .17-.17 1.778 1.778 0 0 1-.1.323.5.5 0 0 1-.246.172 5.128 5.128 0 0 1-2.927-.84 23.447 23.447 0 0 0-3.763.915c-1.093 1.96-1.915 2.86-2.583 2.518l-.246-.126a.3.3 0 0 1-.092-.317c.078-.39.556-.977 1.516-1.564.1-.064.564-.313.564-.313s-.341.338-.421.4a3.629 3.629 0 0 0-1.318 1.765v.027c.651-.095 1.628-1.451 2.884-3.964m.4.208c-.21.4-.415.778-.6 1.122a15.768 15.768 0 0 1 3.246-.94c-.144-.1-.284-.21-.415-.324a5.686 5.686 0 0 1-1.368-1.821 15.76 15.76 0 0 1-.859 1.962" style="fill:#fff" transform="translate(-2100 -772)"/>
    <path data-name="pdf" d="M2106.233 780.837c.3-.61.65-1.3.927-1.987l.109-.272a7.525 7.525 0 0 1-.385-3.266.493.493 0 0 1 .5-.306H2107.55c.316-.005.465.405.481.565a2.618 2.618 0 0 1-.092.716 1.8 1.8 0 0 0-.1-.728c-.131-.293-.256-.468-.367-.5a.365.365 0 0 0-.13.272 4.065 4.065 0 0 0-.05.627 7.153 7.153 0 0 0 .283 1.822c.034-.1.065-.2.09-.3.039-.148.282-1.129.282-1.129s-.062 1.305-.147 1.7l-.06.251a5.75 5.75 0 0 0 1.4 2.237 4.371 4.371 0 0 0 .809.569 10.739 10.739 0 0 1 1.642-.127 2.02 2.02 0 0 1 1.264.289.5.5 0 0 1 .139.323 1 1 0 0 1-.027.188c.007-.034.007-.2-.492-.365a5.68 5.68 0 0 0-2.013-.028 4 4 0 0 0 2.333.613.678.678 0 0 0 .17-.17 1.778 1.778 0 0 1-.1.323.5.5 0 0 1-.246.172 5.128 5.128 0 0 1-2.927-.84 23.447 23.447 0 0 0-3.763.915c-1.093 1.96-1.915 2.86-2.583 2.518l-.246-.126a.3.3 0 0 1-.092-.317c.078-.39.556-.977 1.516-1.564.1-.064.564-.313.564-.313s-.341.338-.421.4a3.629 3.629 0 0 0-1.318 1.765v.027c.651-.095 1.628-1.451 2.884-3.964m.4.208c-.21.4-.415.778-.6 1.122a15.768 15.768 0 0 1 3.246-.94c-.144-.1-.284-.21-.415-.324a5.686 5.686 0 0 1-1.368-1.821 15.76 15.76 0 0 1-.859 1.962" style="fill:#fff" transform="translate(-2100 -772)"/>
</svg>
