<?xml version="1.0" encoding="utf-8"?>
<!-- Generator: Adobe Illustrator 27.2.0, SVG Export Plug-In . SVG Version: 6.00 Build 0)  -->
<svg version="1.1" id="link" xmlns="http://www.w3.org/2000/svg" xmlns:xlink="http://www.w3.org/1999/xlink" x="0px" y="0px" viewBox="0 0 22 22" style="enable-background:new 0 0 22 22;" xml:space="preserve">
<style type="text/css">
	.st0{fill:none;}
	.st1{fill:#8B8B8B;}
</style>
<rect id="link_Background_" class="st0" width="22" height="22"/>
<path id="link-2" class="st1" d="M7.1,18.3c-1.9,0-3.4-1.5-3.4-3.4c0-0.9,0.4-1.8,1-2.4l2.9-2.9l1,1l-2.9,2.9
	c-0.8,0.8-0.8,2.1,0,2.9c0.8,0.8,2.1,0.8,2.9,0l2.9-2.9l1,1l-2.9,2.9C8.9,18,8,18.3,7.1,18.3z M9.5,13.4L9.5,13.4l-1-1l3.9-3.9l1,1
	L9.5,13.4L9.5,13.4z M14.4,12.5L14.4,12.5l-1-1l2.9-2.9c0.8-0.8,0.8-2.1,0-2.9s-2.1-0.8-2.9,0l0,0l-2.9,2.9l-1-1l2.9-2.9
	c1.3-1.3,3.5-1.3,4.9,0s1.3,3.5,0,4.9L14.4,12.5L14.4,12.5z"/>
</svg>
